<svg width="1580" height="328" viewBox="0 0 1580 328" fill="none" xmlns="http://www.w3.org/2000/svg">
<path fill-rule="evenodd" clip-rule="evenodd" d="M392.811 126.151L447.959 191.973H486.407V182.094L476.672 170.598H535.066V327.327H570.577V170.598H624.441V173.817C624.441 180.581 626.132 186.811 629.514 192.507C632.896 198.025 637.346 202.475 642.864 205.857C648.56 209.239 654.79 210.93 661.554 210.93H779.568C786.332 210.93 792.473 209.239 797.991 205.857C803.687 202.475 808.226 198.025 811.608 192.507C811.807 192.171 812.001 191.833 812.189 191.494V327.327H847.433V262.713H968.918V327.327H1004.43V172.2C1004.43 165.436 1002.74 159.295 999.356 153.777C995.974 148.081 991.435 143.542 985.739 140.16C980.043 136.778 973.813 135.087 967.049 135.087H849.302C842.538 135.087 836.308 136.778 830.612 140.16C825.094 143.542 820.644 148.081 817.262 153.777C817.062 154.103 816.869 154.43 816.681 154.76V18.69H781.17V172.215C781.17 173.105 780.814 173.906 780.102 174.618C779.39 175.152 778.589 175.419 777.699 175.419H662.889C661.999 175.419 661.198 175.152 660.486 174.618C659.952 173.906 659.685 173.105 659.685 172.215V18.69H624.441V135.087H456.568V146.858L438.944 126.048L449.561 126.024C456.325 126.024 462.555 124.422 468.251 121.218C473.947 117.836 478.486 113.297 481.868 107.601C485.25 101.905 486.941 95.675 486.941 88.911V37.113C486.941 30.349 485.25 24.208 481.868 18.69C478.486 12.994 473.947 8.455 468.251 5.073C462.555 1.691 456.325 0 449.561 0H294.701V191.973H329.945V126.291L392.811 126.151ZM447.959 90.513H333.149C332.259 90.513 331.458 90.246 330.746 89.712C330.212 89.178 329.945 88.466 329.945 87.576V38.448C329.945 37.558 330.212 36.846 330.746 36.312C331.458 35.6 332.259 35.244 333.149 35.244H447.959C448.849 35.244 449.65 35.6 450.362 36.312C451.074 36.846 451.43 37.558 451.43 38.448V87.576C451.43 88.466 451.074 89.178 450.362 89.712C449.65 90.246 448.849 90.513 447.959 90.513ZM111.339 327.327L0 135.087H41.118L127.092 284.607L213.333 135.087H248.291H254.184H283.268V327.327H248.291V145.262L142.845 327.327H111.339ZM847.433 227.469H968.918V173.802C968.918 172.912 968.562 172.2 967.85 171.666C967.138 170.954 966.337 170.598 965.447 170.598H850.637C849.747 170.598 848.946 170.954 848.234 171.666C847.7 172.2 847.433 172.912 847.433 173.802V227.469ZM1033.27 60.4767V252.984H1179.7V323.123L1334.56 322.123C1341.33 322.123 1347.56 320.432 1353.25 317.05C1358.95 313.668 1363.49 309.218 1366.87 303.7C1370.25 298.004 1371.94 291.774 1371.94 285.01V166.996C1371.94 160.232 1370.25 154.091 1366.87 148.573C1363.49 142.877 1358.95 138.338 1353.25 134.956C1347.56 131.574 1341.33 129.883 1334.56 129.883L1179.7 130.883V217.473H1068.51V60.4767H1033.27ZM1214.68 283.408V252.984H1225.51V217.473H1214.68V168.598C1214.68 167.708 1214.94 166.996 1215.48 166.462C1216.19 165.75 1216.99 165.394 1217.88 165.394H1332.96C1333.85 165.394 1334.65 165.75 1335.36 166.462C1336.07 166.996 1336.43 167.708 1336.43 168.598V283.408C1336.43 284.298 1336.07 285.099 1335.36 285.811C1334.65 286.345 1333.85 286.612 1332.96 286.612H1217.88C1216.99 286.612 1216.19 286.345 1215.48 285.811C1214.94 285.099 1214.68 284.298 1214.68 283.408ZM1406.66 247.911C1412.35 251.293 1418.58 252.984 1425.35 252.984H1579.94V217.473H1432.82C1429.98 217.473 1427.66 216.672 1425.88 215.07C1424.28 213.29 1423.48 210.976 1423.48 208.128V105.6C1423.48 102.574 1424.28 100.26 1425.88 98.6577C1427.66 97.0557 1429.98 96.2547 1432.82 96.2547H1579.94V60.7437H1425.35C1418.58 60.7437 1412.35 62.4347 1406.66 65.8167C1401.14 69.1986 1396.69 73.7377 1393.31 79.4337C1389.93 84.9517 1388.24 91.0927 1388.24 97.8567V215.871C1388.24 222.635 1389.93 228.865 1393.31 234.561C1396.69 240.079 1401.14 244.529 1406.66 247.911Z" fill="url(#paint0_linear_689_41)"/>
<defs>
<linearGradient id="paint0_linear_689_41" x1="-43" y1="260.999" x2="1673" y2="107.527" gradientUnits="userSpaceOnUse">
<stop stop-color="#EF009B"/>
<stop offset="1" stop-color="#44A2FC"/>
</linearGradient>
</defs>
</svg>
