<svg width="1295" height="187" viewBox="0 0 1295 187" fill="none" xmlns="http://www.w3.org/2000/svg">
    <path d="M1163.91 184.304V2.48584H1294.95V42.2586H1213.27V73.5086H1288.2V113.281H1213.27V144.531H1294.6V184.304H1163.91Z" fill="#FCFCFC" />
    <path d="M1011.92 184.304V2.48584H1090.76C1104.61 2.48584 1116.24 4.35019 1125.65 8.07888C1135.12 11.8076 1142.25 17.0751 1147.04 23.8814C1151.9 30.6878 1154.32 38.7074 1154.32 47.9404C1154.32 54.6284 1152.84 60.7245 1149.88 66.2287C1146.98 71.733 1142.9 76.3495 1137.63 80.0782C1132.36 83.7477 1126.21 86.2927 1119.17 87.7131V89.4887C1126.98 89.7846 1134.08 91.7673 1140.47 95.4368C1146.86 99.0472 1151.95 104.048 1155.74 110.44C1159.53 116.773 1161.42 124.231 1161.42 132.813C1161.42 142.756 1158.82 151.604 1153.61 159.357C1148.46 167.111 1141.12 173.207 1131.59 177.646C1122.07 182.085 1110.7 184.304 1097.5 184.304H1011.92ZM1061.28 144.886H1084.36C1092.65 144.886 1098.86 143.348 1103.01 140.27C1107.15 137.133 1109.22 132.517 1109.22 126.421C1109.22 122.159 1108.25 118.549 1106.29 115.59C1104.34 112.63 1101.56 110.381 1097.95 108.842C1094.4 107.304 1090.11 106.534 1085.07 106.534H1061.28V144.886ZM1061.28 75.9944H1081.52C1085.84 75.9944 1089.66 75.3137 1092.98 73.9525C1096.29 72.5912 1098.86 70.6381 1100.7 68.0931C1102.59 65.4889 1103.54 62.3225 1103.54 58.5938C1103.54 52.9712 1101.53 48.6802 1097.5 45.7209C1093.48 42.7025 1088.39 41.1932 1082.23 41.1932H1061.28V75.9944Z" fill="#FCFCFC" />
    <path d="M1003.53 2.48584V184.304H954.167V2.48584H1003.53Z" fill="#FCFCFC" />
    <path d="M802.175 184.304V2.48584H880.655C894.149 2.48584 905.957 4.94204 916.078 9.85445C926.198 14.7669 934.07 21.8395 939.693 31.0725C945.315 40.3054 948.127 51.3732 948.127 64.2756C948.127 77.2964 945.227 88.2754 939.426 97.2124C933.685 106.149 925.607 112.897 915.19 117.454C904.832 122.011 892.729 124.29 878.88 124.29H832.005V85.9376H868.936C874.737 85.9376 879.679 85.2273 883.762 83.8069C887.905 82.3272 891.072 79.9894 893.262 76.7934C895.511 73.5974 896.635 69.4248 896.635 64.2756C896.635 59.0673 895.511 54.8355 893.262 51.5803C891.072 48.2659 887.905 45.8393 883.762 44.3005C879.679 42.7025 874.737 41.9034 868.936 41.9034H851.536V184.304H802.175ZM908.709 100.852L954.164 184.304H900.542L856.152 100.852H908.709Z" fill="#FCFCFC" />
    <path d="M794.781 70.6676H744.71C744.355 66.5246 743.408 62.7663 741.869 59.3928C740.389 56.0192 738.318 53.1191 735.654 50.6925C733.05 48.2067 729.884 46.3127 726.155 45.0107C722.426 43.6494 718.195 42.9688 713.46 42.9688C705.174 42.9688 698.16 44.9811 692.419 49.0057C686.737 53.0303 682.417 58.8009 679.458 66.3175C676.557 73.834 675.107 82.8599 675.107 93.3949C675.107 104.522 676.587 113.844 679.546 121.36C682.565 128.817 686.915 134.44 692.597 138.228C698.279 141.957 705.114 143.821 713.105 143.821C717.662 143.821 721.746 143.259 725.356 142.134C728.966 140.951 732.103 139.264 734.766 137.074C737.43 134.884 739.59 132.25 741.247 129.173C742.964 126.036 744.118 122.514 744.71 118.608L794.781 118.963C794.189 126.657 792.029 134.499 788.3 142.489C784.571 150.42 779.274 157.759 772.409 164.506C765.602 171.194 757.168 176.58 747.107 180.664C737.045 184.748 725.356 186.79 712.039 186.79C695.349 186.79 680.375 183.209 667.117 176.048C653.919 168.886 643.473 158.351 635.779 144.442C628.144 130.534 624.326 113.518 624.326 93.3949C624.326 73.1534 628.232 56.108 636.045 42.2585C643.857 28.3499 654.392 17.8445 667.65 10.7422C680.908 3.58073 695.704 0 712.039 0C723.521 0 734.086 1.56842 743.733 4.70525C753.38 7.8421 761.844 12.429 769.124 18.4659C776.404 24.4437 782.263 31.8123 786.702 40.5717C791.141 49.3312 793.834 59.3632 794.781 70.6676Z" fill="#FCFCFC" />
    <path d="M571.544 59.304C571.07 53.3854 568.851 48.7689 564.885 45.4546C560.979 42.1402 555.031 40.483 547.041 40.483C541.951 40.483 537.778 41.1044 534.523 42.3473C531.327 43.531 528.96 45.1586 527.421 47.2301C525.882 49.3016 525.083 51.669 525.024 54.3324C524.906 56.5223 525.29 58.505 526.178 60.2805C527.125 61.9969 528.605 63.5653 530.617 64.9858C532.629 66.3471 535.204 67.59 538.341 68.7145C541.478 69.839 545.206 70.8452 549.527 71.733L564.442 74.929C574.503 77.0597 583.115 79.871 590.276 83.3629C597.438 86.8549 603.297 90.9683 607.854 95.7031C612.412 100.379 615.756 105.646 617.886 111.506C620.076 117.365 621.201 123.757 621.26 130.682C621.201 142.637 618.212 152.758 612.293 161.044C606.375 169.33 597.911 175.633 586.903 179.954C575.953 184.274 562.784 186.435 547.396 186.435C531.594 186.435 517.803 184.097 506.025 179.421C494.307 174.746 485.192 167.554 478.682 157.848C472.23 148.082 468.975 135.594 468.916 120.384H515.791C516.087 125.947 517.478 130.623 519.964 134.411C522.449 138.198 525.941 141.069 530.439 143.022C534.997 144.975 540.412 145.952 546.686 145.952C551.953 145.952 556.363 145.301 559.914 143.999C563.465 142.696 566.158 140.891 567.993 138.583C569.827 136.275 570.774 133.641 570.834 130.682C570.774 127.9 569.857 125.473 568.082 123.402C566.365 121.271 563.524 119.377 559.559 117.72C555.593 116.004 550.237 114.406 543.49 112.926L525.379 109.02C509.281 105.528 496.585 99.6982 487.293 91.5305C478.06 83.3037 473.473 72.0881 473.533 57.8835C473.473 46.3423 476.551 36.2512 482.765 27.6101C489.039 18.9098 497.71 12.133 508.778 7.27983C519.904 2.42661 532.659 0 547.041 0C561.719 0 574.414 2.45621 585.127 7.36861C595.84 12.281 604.096 19.2057 609.896 28.1428C615.756 37.0206 618.715 47.4077 618.774 59.304H571.544Z" fill="#FCFCFC" />
    <path d="M321.54 184.304V2.48584H400.376C414.225 2.48584 425.855 4.35019 435.265 8.07888C444.735 11.8076 451.867 17.0751 456.661 23.8814C461.514 30.6878 463.941 38.7074 463.941 47.9404C463.941 54.6284 462.461 60.7245 459.502 66.2287C456.602 71.733 452.518 76.3495 447.251 80.0782C441.983 83.7477 435.828 86.2927 428.785 87.7131V89.4887C436.597 89.7846 443.699 91.7673 450.091 95.4368C456.483 99.0472 461.573 104.048 465.361 110.44C469.149 116.773 471.043 124.231 471.043 132.813C471.043 142.756 468.439 151.604 463.231 159.357C458.081 167.111 450.742 173.207 441.214 177.646C431.685 182.085 420.321 184.304 407.123 184.304H321.54ZM370.901 144.886H393.983C402.269 144.886 408.484 143.348 412.627 140.27C416.77 137.133 418.841 132.517 418.841 126.421C418.841 122.159 417.865 118.549 415.912 115.59C413.959 112.63 411.177 110.381 407.567 108.842C404.015 107.304 399.724 106.534 394.694 106.534H370.901V144.886ZM370.901 75.9944H391.143C395.463 75.9944 399.281 75.3137 402.595 73.9525C405.909 72.5912 408.484 70.6381 410.319 68.0931C412.213 65.4889 413.16 62.3225 413.16 58.5938C413.16 52.9712 411.147 48.6802 407.123 45.7209C403.098 42.7025 398.008 41.1932 391.853 41.1932H370.901V75.9944Z" fill="#FCFCFC" />
    <path d="M263.72 2.48584H313.081V118.963C313.081 132.813 309.766 144.798 303.137 154.918C296.568 164.98 287.394 172.763 275.616 178.267C263.838 183.712 250.166 186.435 234.6 186.435C218.916 186.435 205.185 183.712 193.407 178.267C181.629 172.763 172.456 164.98 165.886 154.918C159.376 144.798 156.12 132.813 156.12 118.963V2.48584H205.481V114.702C205.481 120.324 206.724 125.355 209.21 129.794C211.696 134.174 215.128 137.607 219.508 140.092C223.947 142.578 228.978 143.821 234.6 143.821C240.282 143.821 245.313 142.578 249.693 140.092C254.073 137.607 257.505 134.174 259.991 129.794C262.477 125.355 263.72 120.324 263.72 114.702V2.48584Z" fill="#FCFCFC" />
    <path d="M102.628 59.304C102.154 53.3854 99.9349 48.7689 95.9695 45.4546C92.0632 42.1402 86.1151 40.483 78.125 40.483C73.035 40.483 68.8625 41.1044 65.6072 42.3473C62.4112 43.531 60.0438 45.1586 58.505 47.2301C56.9661 49.3016 56.1671 51.669 56.108 54.3324C55.9896 56.5223 56.3743 58.505 57.2621 60.2805C58.209 61.9969 59.6887 63.5653 61.701 64.9858C63.7133 66.3471 66.2879 67.59 69.4247 68.7145C72.5616 69.839 76.2903 70.8452 80.6108 71.733L95.5256 74.929C105.587 77.0597 114.199 79.871 121.36 83.3629C128.522 86.8549 134.381 90.9683 138.938 95.7031C143.495 100.379 146.839 105.646 148.97 111.506C151.16 117.365 152.285 123.757 152.344 130.682C152.285 142.637 149.296 152.758 143.377 161.044C137.459 169.33 128.995 175.633 117.987 179.954C107.037 184.274 93.8684 186.435 78.4801 186.435C62.6776 186.435 48.8873 184.097 37.1094 179.421C25.3906 174.746 16.276 167.554 9.76563 157.848C3.31439 148.082 0.0591855 135.594 0 120.384H46.875C47.1709 125.947 48.5618 130.623 51.0476 134.411C53.5334 138.198 57.0253 141.069 61.5234 143.022C66.0807 144.975 71.4962 145.952 77.7699 145.952C83.0374 145.952 87.4467 145.301 90.9979 143.999C94.549 142.696 97.242 140.891 99.0767 138.583C100.911 136.275 101.858 133.641 101.918 130.682C101.858 127.9 100.941 125.473 99.1655 123.402C97.4491 121.271 94.6082 119.377 90.6428 117.72C86.6773 116.004 81.321 114.406 74.5739 112.926L56.4631 109.02C40.3646 105.528 27.6693 99.6982 18.3771 91.5305C9.14418 83.3037 4.55729 72.0881 4.61648 57.8835C4.55729 46.3423 7.63494 36.2512 13.8494 27.6101C20.1231 18.9098 28.7938 12.133 39.8615 7.27983C50.9884 2.42661 63.7429 0 78.125 0C92.803 0 105.498 2.45621 116.211 7.36861C126.924 12.281 135.18 19.2057 140.98 28.1428C146.839 37.0206 149.799 47.4077 149.858 59.304H102.628Z" fill="#FCFCFC" />
  </svg>