<svg width="35" height="30" viewBox="0 0 35 30" fill="none" xmlns="http://www.w3.org/2000/svg">
    <path d="M11.7856 30.0002L18.7499 17.6787L26.0714 30.0002H24.2857L20.1785 22.8573L15.8928 30.0002H11.7856Z" fill="#0DF0FE" />
    <path d="M27.662 27.2665L20.6058 14.9975L34.9383 14.9728L34.0288 16.5095L25.7899 16.4058L29.7539 23.7321L27.662 27.2665Z" fill="#0DF0FE" />
    <path d="M33.1771 12.3646L19.0244 12.5084L26.0217 4.06562e-05L26.9161 1.54561L22.791 8.67812L31.1199 8.80979L33.1771 12.3646Z" fill="#0DF0FE" />
    <path d="M22.8573 -5.41763e-05L15.9425 12.3492L8.57166 0.0572923L10.3574 0.050124L14.4932 7.17644L18.7502 0.0164329L22.8573 -5.41763e-05Z" fill="#0DFE7C" />
    <path d="M7.28942 2.50018L14.3328 14.7766L0.000225669 14.7863L0.911374 13.2506L9.1501 13.3629L5.19377 6.03245L7.28942 2.50018Z" fill="#0DFE7C" />
    <path d="M1.42851 17.6014L15.5812 17.4561L8.58524 29.9652L7.69065 28.4197L11.815 21.2868L3.48607 21.156L1.42851 17.6014Z" fill="#0DFE7C" />
  </svg>