<svg width="1296" height="151" viewBox="0 0 1296 151" fill="none" xmlns="http://www.w3.org/2000/svg">
    <path d="M1156.56 150.48V0H1295.54V32.604H1189.37V58.938H1274.85V91.542H1189.37V117.876H1295.54V150.48H1156.56Z"
        fill="#FCFCFC" />
    <path
        d="M995.412 150.48V0H1109.11C1114.68 0 1119.77 1.39333 1124.36 4.18C1129.1 6.96667 1132.86 10.7287 1135.65 15.466C1138.58 20.064 1140.04 25.2193 1140.04 30.932V59.147C1140.04 60.9583 1139.9 62.7 1139.62 64.372C1139.48 65.9047 1139.13 67.3677 1138.58 68.761C1140.67 71.4083 1142.41 74.4737 1143.8 77.957C1145.2 81.4403 1145.89 84.9237 1145.89 88.407V119.548C1145.89 125.121 1144.43 130.277 1141.5 135.014C1138.72 139.751 1134.95 143.513 1130.22 146.3C1125.62 149.087 1120.46 150.48 1114.75 150.48H995.412ZM1027.81 117.876H1113.08V90.288H1027.81V117.876ZM1027.81 57.684H1107.23V32.604H1027.81V57.684Z"
        fill="#FCFCFC" />
    <path d="M957.401 150.48V0H989.378V150.48H957.401Z" fill="#FCFCFC" />
    <path
        d="M919.531 150.48L875.85 98.439H918.277L952.971 139.403V150.48H919.531ZM802.7 150.48V0.208984H922.039C927.752 0.208984 932.907 1.60232 937.505 4.38898C942.243 7.17565 946.005 10.9377 948.791 15.675C951.717 20.4123 953.18 25.5677 953.18 31.141V70.015C953.18 75.5883 951.717 80.7437 948.791 85.481C946.005 90.2183 942.243 93.9803 937.505 96.767C932.907 99.5537 927.752 100.947 922.039 100.947L835.095 101.156V150.48H802.7ZM835.095 68.343H920.367V32.604H835.095V68.343Z"
        fill="#FCFCFC" />
    <path
        d="M674.319 150.48C668.606 150.48 663.381 149.087 658.644 146.3C654.046 143.513 650.353 139.821 647.567 135.223C644.78 130.486 643.387 125.261 643.387 119.548V30.932C643.387 25.2193 644.78 20.064 647.567 15.466C650.353 10.7287 654.046 6.96667 658.644 4.18C663.381 1.39333 668.606 0 674.319 0H793.449V32.604H682.679C680.449 32.604 678.708 33.1613 677.454 34.276C676.339 35.3907 675.782 37.1323 675.782 39.501V110.979C675.782 113.208 676.339 114.95 677.454 116.204C678.708 117.319 680.449 117.876 682.679 117.876H793.449V150.48H674.319Z"
        fill="#FCFCFC" />
    <path
        d="M513.363 150.48C507.789 150.48 502.634 149.087 497.897 146.3C493.159 143.513 489.397 139.751 486.611 135.014C483.824 130.277 482.431 125.121 482.431 119.548V105.545H514.826V117.876H600.098V91.542H513.363C507.789 91.542 502.634 90.1487 497.897 87.362C493.159 84.5753 489.397 80.883 486.611 76.285C483.824 71.5477 482.431 66.3227 482.431 60.61V30.932C482.431 25.2193 483.824 20.064 486.611 15.466C489.397 10.7287 493.159 6.96667 497.897 4.18C502.634 1.39333 507.789 0 513.363 0H601.979C607.552 0 612.638 1.39333 617.236 4.18C621.973 6.96667 625.735 10.7287 628.522 15.466C631.448 20.064 632.911 25.2193 632.911 30.932V44.935H600.098V32.604H514.826V58.938H601.979C607.552 58.938 612.638 60.3313 617.236 63.118C621.973 65.9047 625.735 69.6667 628.522 74.404C631.448 79.002 632.911 84.1573 632.911 89.87V119.548C632.911 125.121 631.448 130.277 628.522 135.014C625.735 139.751 621.973 143.513 617.236 146.3C612.638 149.087 607.552 150.48 601.979 150.48H513.363Z"
        fill="#FCFCFC" />
    <path
        d="M322.121 150.48V0H435.817C441.39 0 446.476 1.39333 451.074 4.18C455.811 6.96667 459.573 10.7287 462.36 15.466C465.286 20.064 466.749 25.2193 466.749 30.932V59.147C466.749 60.9583 466.61 62.7 466.331 64.372C466.192 65.9047 465.843 67.3677 465.286 68.761C467.376 71.4083 469.118 74.4737 470.511 77.957C471.904 81.4403 472.601 84.9237 472.601 88.407V119.548C472.601 125.121 471.138 130.277 468.212 135.014C465.425 139.751 461.663 143.513 456.926 146.3C452.328 149.087 447.173 150.48 441.46 150.48H322.121ZM354.516 117.876H439.788V90.288H354.516V117.876ZM354.516 57.684H433.936V32.604H354.516V57.684Z"
        fill="#FCFCFC" />
    <path
        d="M191.47 150.48C185.897 150.48 180.741 149.087 176.004 146.3C171.267 143.513 167.505 139.751 164.718 135.014C161.931 130.277 160.538 125.121 160.538 119.548V0H192.933V117.876H278.205V0H311.018V119.548C311.018 125.121 309.555 130.277 306.629 135.014C303.842 139.751 300.08 143.513 295.343 146.3C290.745 149.087 285.659 150.48 280.086 150.48H191.47Z"
        fill="#FCFCFC" />
    <path
        d="M30.932 150.48C25.3587 150.48 20.2033 149.087 15.466 146.3C10.7287 143.513 6.96667 139.751 4.18 135.014C1.39333 130.277 0 125.121 0 119.548V105.545H32.395V117.876H117.667V91.542H30.932C25.3587 91.542 20.2033 90.1487 15.466 87.362C10.7287 84.5753 6.96667 80.883 4.18 76.285C1.39333 71.5477 0 66.3227 0 60.61V30.932C0 25.2193 1.39333 20.064 4.18 15.466C6.96667 10.7287 10.7287 6.96667 15.466 4.18C20.2033 1.39333 25.3587 0 30.932 0H119.548C125.121 0 130.207 1.39333 134.805 4.18C139.542 6.96667 143.304 10.7287 146.091 15.466C149.017 20.064 150.48 25.2193 150.48 30.932V44.935H117.667V32.604H32.395V58.938H119.548C125.121 58.938 130.207 60.3313 134.805 63.118C139.542 65.9047 143.304 69.6667 146.091 74.404C149.017 79.002 150.48 84.1573 150.48 89.87V119.548C150.48 125.121 149.017 130.277 146.091 135.014C143.304 139.751 139.542 143.513 134.805 146.3C130.207 149.087 125.121 150.48 119.548 150.48H30.932Z"
        fill="#FCFCFC" />
</svg>